<mxfile host="app.diagrams.net" modified="2024-03-20T21:18:51.206Z" agent="Mozilla/5.0 (Windows NT 10.0; Win64; x64) AppleWebKit/537.36 (KHTML, like Gecko) Chrome/122.0.0.0 Safari/537.36" etag="1zkk1PO-vbMV72X9Kumr" version="24.0.3" type="github">
  <diagram name="Page-1" id="p_LPcXB9vOPsimaBM1Zp">
    <mxGraphModel dx="1290" dy="557" grid="1" gridSize="10" guides="1" tooltips="1" connect="1" arrows="1" fold="1" page="1" pageScale="1" pageWidth="827" pageHeight="1169" math="0" shadow="0">
      <root>
        <mxCell id="0" />
        <mxCell id="1" parent="0" />
        <mxCell id="3E2bdkCYYPqQ9lkT8uKb-3" value="" style="edgeStyle=orthogonalEdgeStyle;rounded=0;orthogonalLoop=1;jettySize=auto;html=1;" parent="1" source="3E2bdkCYYPqQ9lkT8uKb-2" target="3E2bdkCYYPqQ9lkT8uKb-1" edge="1">
          <mxGeometry relative="1" as="geometry" />
        </mxCell>
        <mxCell id="NntVG7gRL_q0hDVQf2vh-3" style="edgeStyle=orthogonalEdgeStyle;rounded=0;orthogonalLoop=1;jettySize=auto;html=1;" edge="1" parent="1" source="3E2bdkCYYPqQ9lkT8uKb-1" target="3E2bdkCYYPqQ9lkT8uKb-17">
          <mxGeometry relative="1" as="geometry" />
        </mxCell>
        <mxCell id="NntVG7gRL_q0hDVQf2vh-4" value="Vbat_analogue" style="edgeLabel;html=1;align=center;verticalAlign=middle;resizable=0;points=[];" vertex="1" connectable="0" parent="NntVG7gRL_q0hDVQf2vh-3">
          <mxGeometry x="-0.56" y="-4" relative="1" as="geometry">
            <mxPoint y="-4" as="offset" />
          </mxGeometry>
        </mxCell>
        <mxCell id="NntVG7gRL_q0hDVQf2vh-5" value="" style="edgeStyle=orthogonalEdgeStyle;rounded=0;orthogonalLoop=1;jettySize=auto;html=1;" edge="1" parent="1" source="3E2bdkCYYPqQ9lkT8uKb-1" target="3E2bdkCYYPqQ9lkT8uKb-4">
          <mxGeometry relative="1" as="geometry" />
        </mxCell>
        <mxCell id="3E2bdkCYYPqQ9lkT8uKb-1" value="Batt" style="rounded=0;whiteSpace=wrap;html=1;" parent="1" vertex="1">
          <mxGeometry x="330" y="50" width="120" height="60" as="geometry" />
        </mxCell>
        <mxCell id="3E2bdkCYYPqQ9lkT8uKb-2" value="Charging circuit" style="rounded=0;whiteSpace=wrap;html=1;" parent="1" vertex="1">
          <mxGeometry x="110" y="50" width="120" height="60" as="geometry" />
        </mxCell>
        <mxCell id="NntVG7gRL_q0hDVQf2vh-7" value="" style="edgeStyle=orthogonalEdgeStyle;rounded=0;orthogonalLoop=1;jettySize=auto;html=1;" edge="1" parent="1" source="3E2bdkCYYPqQ9lkT8uKb-4" target="NntVG7gRL_q0hDVQf2vh-6">
          <mxGeometry relative="1" as="geometry" />
        </mxCell>
        <mxCell id="3E2bdkCYYPqQ9lkT8uKb-4" value="Switch" style="whiteSpace=wrap;html=1;rounded=0;" parent="1" vertex="1">
          <mxGeometry x="330" y="150" width="120" height="60" as="geometry" />
        </mxCell>
        <mxCell id="3E2bdkCYYPqQ9lkT8uKb-14" value="" style="edgeStyle=orthogonalEdgeStyle;rounded=0;orthogonalLoop=1;jettySize=auto;html=1;" parent="1" source="3E2bdkCYYPqQ9lkT8uKb-11" target="3E2bdkCYYPqQ9lkT8uKb-13" edge="1">
          <mxGeometry relative="1" as="geometry" />
        </mxCell>
        <mxCell id="3E2bdkCYYPqQ9lkT8uKb-18" value="" style="edgeStyle=orthogonalEdgeStyle;rounded=0;orthogonalLoop=1;jettySize=auto;html=1;" parent="1" source="3E2bdkCYYPqQ9lkT8uKb-11" target="3E2bdkCYYPqQ9lkT8uKb-17" edge="1">
          <mxGeometry relative="1" as="geometry" />
        </mxCell>
        <mxCell id="3E2bdkCYYPqQ9lkT8uKb-19" value="Vdd" style="edgeLabel;html=1;align=center;verticalAlign=middle;resizable=0;points=[];" parent="3E2bdkCYYPqQ9lkT8uKb-18" vertex="1" connectable="0">
          <mxGeometry x="-0.0133" y="3" relative="1" as="geometry">
            <mxPoint as="offset" />
          </mxGeometry>
        </mxCell>
        <mxCell id="3E2bdkCYYPqQ9lkT8uKb-23" style="edgeStyle=orthogonalEdgeStyle;rounded=0;orthogonalLoop=1;jettySize=auto;html=1;" parent="1" source="3E2bdkCYYPqQ9lkT8uKb-11" target="3E2bdkCYYPqQ9lkT8uKb-22" edge="1">
          <mxGeometry relative="1" as="geometry" />
        </mxCell>
        <mxCell id="3E2bdkCYYPqQ9lkT8uKb-28" value="Vbat" style="edgeLabel;html=1;align=center;verticalAlign=middle;resizable=0;points=[];" parent="3E2bdkCYYPqQ9lkT8uKb-23" vertex="1" connectable="0">
          <mxGeometry x="-0.8233" relative="1" as="geometry">
            <mxPoint as="offset" />
          </mxGeometry>
        </mxCell>
        <mxCell id="3E2bdkCYYPqQ9lkT8uKb-11" value="Cuttoff protection" style="whiteSpace=wrap;html=1;rounded=0;" parent="1" vertex="1">
          <mxGeometry x="330" y="390" width="120" height="60" as="geometry" />
        </mxCell>
        <mxCell id="3E2bdkCYYPqQ9lkT8uKb-13" value="Motor_A&lt;div&gt;H-Bridge&lt;/div&gt;" style="whiteSpace=wrap;html=1;rounded=0;" parent="1" vertex="1">
          <mxGeometry x="430" y="525" width="120" height="60" as="geometry" />
        </mxCell>
        <mxCell id="3E2bdkCYYPqQ9lkT8uKb-24" style="edgeStyle=orthogonalEdgeStyle;rounded=0;orthogonalLoop=1;jettySize=auto;html=1;" parent="1" source="3E2bdkCYYPqQ9lkT8uKb-17" edge="1">
          <mxGeometry relative="1" as="geometry">
            <mxPoint x="550" y="560" as="targetPoint" />
            <Array as="points">
              <mxPoint x="650" y="560" />
              <mxPoint x="550" y="560" />
            </Array>
          </mxGeometry>
        </mxCell>
        <mxCell id="3E2bdkCYYPqQ9lkT8uKb-26" value="PWM" style="edgeLabel;html=1;align=center;verticalAlign=middle;resizable=0;points=[];" parent="3E2bdkCYYPqQ9lkT8uKb-24" vertex="1" connectable="0">
          <mxGeometry x="0.3119" y="-2" relative="1" as="geometry">
            <mxPoint x="-2" y="-3" as="offset" />
          </mxGeometry>
        </mxCell>
        <mxCell id="3E2bdkCYYPqQ9lkT8uKb-25" style="edgeStyle=orthogonalEdgeStyle;rounded=0;orthogonalLoop=1;jettySize=auto;html=1;entryX=1;entryY=0.75;entryDx=0;entryDy=0;" parent="1" source="3E2bdkCYYPqQ9lkT8uKb-17" target="3E2bdkCYYPqQ9lkT8uKb-22" edge="1">
          <mxGeometry relative="1" as="geometry">
            <Array as="points">
              <mxPoint x="690" y="625" />
            </Array>
          </mxGeometry>
        </mxCell>
        <mxCell id="3E2bdkCYYPqQ9lkT8uKb-27" value="PWM" style="edgeLabel;html=1;align=center;verticalAlign=middle;resizable=0;points=[];" parent="3E2bdkCYYPqQ9lkT8uKb-25" vertex="1" connectable="0">
          <mxGeometry x="-0.0892" relative="1" as="geometry">
            <mxPoint x="-11" as="offset" />
          </mxGeometry>
        </mxCell>
        <mxCell id="3E2bdkCYYPqQ9lkT8uKb-17" value="uC" style="whiteSpace=wrap;html=1;rounded=0;" parent="1" vertex="1">
          <mxGeometry x="600" y="390" width="120" height="60" as="geometry" />
        </mxCell>
        <mxCell id="3E2bdkCYYPqQ9lkT8uKb-22" value="Motor_B&lt;div&gt;H-Bridge&lt;/div&gt;" style="whiteSpace=wrap;html=1;rounded=0;" parent="1" vertex="1">
          <mxGeometry x="230" y="580" width="120" height="60" as="geometry" />
        </mxCell>
        <mxCell id="NntVG7gRL_q0hDVQf2vh-8" value="" style="edgeStyle=orthogonalEdgeStyle;rounded=0;orthogonalLoop=1;jettySize=auto;html=1;" edge="1" parent="1" source="NntVG7gRL_q0hDVQf2vh-6" target="3E2bdkCYYPqQ9lkT8uKb-11">
          <mxGeometry relative="1" as="geometry" />
        </mxCell>
        <mxCell id="NntVG7gRL_q0hDVQf2vh-6" value="Voltage regulator:&lt;div&gt;3.6V max&lt;/div&gt;" style="whiteSpace=wrap;html=1;rounded=0;" vertex="1" parent="1">
          <mxGeometry x="330" y="260" width="120" height="60" as="geometry" />
        </mxCell>
      </root>
    </mxGraphModel>
  </diagram>
</mxfile>
